<?xml version="1.0" encoding="UTF-8"?>
<svg id="uuid-c52e7ed1-5a08-4624-b2e5-7fee3f23df0e" data-name="Layer 2" xmlns="http://www.w3.org/2000/svg" viewBox="0 0 135.67 108.45">
  <defs>
    <style>
      .uuid-29a558e1-3d6e-428f-b50c-244b4364d942 {
        fill: #000;
      }

      .uuid-29a558e1-3d6e-428f-b50c-244b4364d942, .uuid-2a2923c0-4f83-40e6-a54e-5e63ee8dcded {
        stroke-width: 0px;
      }

      .uuid-2a2923c0-4f83-40e6-a54e-5e63ee8dcded {
        fill: #fff;
      }
    </style>
  </defs>
  <g id="uuid-7575b500-f881-412b-9064-520c28e5807c" data-name="speech balloon_29">
    <g id="uuid-1ef26189-6112-4ea4-a195-59adc3958cc6" data-name="&amp;lt;Group&amp;gt;">
      <path class="uuid-29a558e1-3d6e-428f-b50c-244b4364d942" d="M21.08.14l-.1.2v.49c0,.1,3.71,4.49,11.22,13.17,6.63,7.9,10.44,12.59,11.12,14.44-1.27.29-3.03.49-5.46.68-5.27.58-10.93.78-17.08.78-5.95-.68-10.25-.88-12.59-.49-1.56.19-2.83.78-3.81,1.76-2.93,1.17-4.39,4.1-4.39,8.78,0,2.93.29,7.81.68,14.34.39,6.34.68,11.22.59,14.34v32.49c.1.19.2.78.2,2.15.1.98.39,1.56.98,2.15,1.46,1.56,5.85,2.63,13.17,3.03h10.44c2.73-.29,4.39-.68,4.78-.78l21.08-.49c7.71.2,13.76.39,17.96.49.88,0,2.83.1,5.85.59h37.18c2.05-.2,5.27-.39,9.95-.39,3.32-.1,5.46-.78,6.34-1.95,1.07-.39,1.85-.88,2.15-1.56.68-1.17,1.07-2.83,1.17-4.78-.1-2.15-.1-3.61-.1-4.49,0-2.83.2-6.15.68-9.76.1-1.66.59-4.78,1.37-9.47v-16.39c.59-5.27.98-11.9.98-19.61.49-2.34.2-4.39-.78-6.44-1.85-3.9-6.44-5.85-13.76-5.85-6.83.49-11.71.68-14.54.49l-24,.49c-6.73-.39-11.51-.78-14.54-1.07-5.07-.39-8.2-1.07-9.17-1.95-3.02-2.34-4.78-3.81-5.46-4.49-4.39-3.71-7.51-6.54-9.27-8.59C32.69,3.26,25.08-.83,21.08.14ZM38.25,14.97c-5.95-6.34-9.27-10.05-10.15-11.22-.1-.1-.19-.19-.29-.29,4.39,2.73,7.32,4.68,8.88,5.86,4.1,2.83,7.22,5.27,9.17,7.42.98.98,2.34,2.24,4.1,3.71,1.85,1.66,3.12,2.73,3.81,3.42,2.05,2.05,5.37,3.61,9.95,4.59.98.29,2.15.49,3.32.68.98.1,5.95.58,15.22,1.27l24-.49c1.76.1,4.39.1,8-.1,2.15-.1,5.37-.29,9.66-.39,1.27.1,2.34.29,3.22.58,3.03.68,4.98,2.15,5.95,4.1.29.68.49,1.76.59,3.42.1.58.1,1.27,0,1.95v.59c0,7.71-.29,13.86-.98,18.54v16.69c0,.1-.29,2.93-.98,8.39-.59,5.56-.98,8.98-.98,10.15,0,1.07.1,2.73.29,4.78-.1.88-.29,1.85-.49,2.54-.29.68-.49,1.17-.88,1.66-2.24,2.63-8.1,3.51-17.57,2.63l-34.64-.1c-2.83-.29-10.73-.59-23.71-.88l-12.2.1c-.29.2-3.22.29-8.68.29-2.34.49-3.9.68-4.59.98h-10.83c-.59-.29-2.24-.59-5.07-.98-3.12-.39-5.07-.59-5.86-.88-1.17-.29-1.85-.68-1.85-1.27.1-.68.2-1.17.1-1.46-.2-2.63-.39-4.58-.39-5.85v-12c0-4.2-.2-12-.49-23.42-.49-11.32-.68-18.44-.68-21.17,0-1.66.2-3.12.68-4.49.78-2.25,2.05-3.32,3.9-3.32.49,0,1.76,0,3.61.2,9.86.2,17.17,0,22.05-.49.2,0,.98,0,2.54-.2,1.56-.1,2.54-.29,3.32-.29,3.71,0,6.15-.29,7.22-.98.29-.2.39-.59.39-1.27,0-2.44-2.93-6.73-8.68-12.98Z"/>
      <path class="uuid-2a2923c0-4f83-40e6-a54e-5e63ee8dcded" d="M28.1,3.75c.88,1.17,4.2,4.88,10.15,11.22,5.76,6.25,8.68,10.54,8.68,12.98,0,.68-.1,1.07-.39,1.27-1.07.68-3.51.98-7.22.98-.78,0-1.76.2-3.32.29-1.56.2-2.34.2-2.54.2-4.88.49-12.2.68-22.05.49-1.85-.2-3.12-.2-3.61-.2-1.85,0-3.12,1.07-3.9,3.32-.49,1.37-.68,2.83-.68,4.49,0,2.73.2,9.86.68,21.17.29,11.42.49,19.22.49,23.42v12c0,1.27.2,3.22.39,5.85.1.29,0,.78-.1,1.46,0,.59.68.98,1.85,1.27.78.29,2.73.49,5.86.88,2.83.39,4.49.68,5.07.98h10.83c.68-.29,2.24-.49,4.59-.98,5.46,0,8.39-.1,8.68-.29l12.2-.1c12.98.29,20.88.59,23.71.88l34.64.1c9.47.88,15.32,0,17.57-2.63.39-.49.58-.98.88-1.66.2-.68.39-1.66.49-2.54-.2-2.05-.29-3.71-.29-4.78,0-1.17.39-4.59.98-10.15.68-5.46.98-8.3.98-8.39v-16.69c.68-4.68.98-10.83.98-18.54v-.59c.1-.68.1-1.37,0-1.95-.1-1.66-.29-2.73-.59-3.42-.98-1.95-2.93-3.42-5.95-4.1-.88-.29-1.95-.49-3.22-.58-4.29.1-7.51.29-9.66.39-3.61.2-6.25.2-8,.1l-24,.49c-9.27-.68-14.25-1.17-15.22-1.27-1.17-.2-2.34-.39-3.32-.68-4.59-.98-7.9-2.54-9.95-4.59-.68-.68-1.95-1.76-3.81-3.42-1.76-1.46-3.12-2.73-4.1-3.71-1.95-2.15-5.07-4.59-9.17-7.42-1.56-1.17-4.49-3.12-8.88-5.86.1.1.2.2.29.29Z"/>
    </g>
  </g>
</svg>