<?xml version="1.0" encoding="UTF-8"?>
<svg id="uuid-39a2aff3-91bf-48b7-bb1b-9bf3b747d47f" data-name="Layer 2" xmlns="http://www.w3.org/2000/svg" viewBox="0 0 315.08 68.21">
  <defs>
    <style>
      .uuid-dcf285c1-7787-4d1a-a22e-8fc5d695edde {
        fill: #000;
      }

      .uuid-dcf285c1-7787-4d1a-a22e-8fc5d695edde, .uuid-5e266e80-464e-449f-8887-561a936406b5 {
        stroke-width: 0px;
      }

      .uuid-5e266e80-464e-449f-8887-561a936406b5 {
        fill: #fff;
      }
    </style>
  </defs>
  <g id="uuid-3ef0c11c-54ba-433a-ba85-22989390ea6d" data-name="speech balloon_45">
    <g id="uuid-c55a29ef-9d65-4a55-8c43-a1ef83046784" data-name="&amp;lt;Group&amp;gt;">
      <path class="uuid-dcf285c1-7787-4d1a-a22e-8fc5d695edde" d="M314.6,23.08l.48-7.44c0-3.82-.96-6.61-3.08-8.28-4.14-3.44-12.43-5.3-25.16-5.3h-15.23c-2.79-.47-5.49-.74-8.48-.93-.39,0-4.72-.37-13.11-.84l-31.42-.09c-.39.09-1.16.19-2.51.37-.67,0-1.35.09-2.22.09h-15.04c-.19,0-4.72.19-13.4.47-8.58.28-13.2.47-13.88.74h-12.63c-.29.09-1.25.09-2.99.19h-10.31c-2.8-.09-9.35-.47-19.57-.93-10.02-.47-16.67-.74-19.86-.84l-16.39-.28c-1.64,0-2.41,0-2.41.09-5.49.19-13.59.65-24.1,1.21-9.83.56-18.89.84-27.18.93h-7.81c-11.47-.74-18.8.19-22.07,2.89-.67.28-1.35.74-1.83,1.12C1.45,8.75,0,14.7,0,24.19c0,1.86.19,3.72.87,5.68.87,2.42,1.64,4.56,2.22,6.14.48,1.3.96,2.33,1.54,2.79.96.93,2.6,1.58,4.92,2.14,5.11,1.12,16.96,2.14,35.37,3.16l7.52.19c3.28.09,5.11.09,5.21.19l48.58.37c21.11,1.02,34.31,1.77,39.52,1.95h10.7c6.26,0,9.93-.09,10.89-.19h10.41c19.86-1.02,30.46-1.67,31.81-1.77l21.69-.28c3.37-.19,5.2-.19,5.59-.28l7.13-.19c.48-.09,4.24-.28,11.08-.74,7.13-.47,11.57-.74,13.3-.74,1.16,2.61,1.83,4.19,1.93,5.02.1.47.19,1.86.19,4.47,0,2.98-.67,6.33-1.93,10.14-1.16,3.16-1.73,4.93-1.73,5.4,0,.09.1.37.1.47l.67.09c1.35,0,2.89-.65,4.82-1.95,1.54-.93,3.47-2.33,5.59-4.56,2.7-2.79,4.63-5.03,5.59-6.89.19-.19,1.44-2.51,4.05-6.98,1.16-2.14,2.12-4,2.89-5.4,7.9.47,13.4-.47,16.58-2.7.19-.09.29-.19.48-.37.48-.19.96-.47,1.44-.84,3.76-2.51,5.59-7.72,5.59-15.45ZM305.35,5.86c1.44.37,2.7.84,3.66,1.3,2.6,1.21,3.86,2.98,3.86,5.3,0,.28.19.47.29.74.19.19.29.47.29.84,0,.84-.1,3.35-.39,7.54-.19,1.12-.19,2.05-.29,2.79-.19,2.33-.29,3.44-.29,3.54,0,.65-.1,1.21-.1,1.86-.19,1.67-.68,3.16-1.16,4.47-.96,1.86-2.41,3.26-4.24,4.09-2.22.93-7.04,1.4-14.36,1.4-2.02,0-3.57,1.12-4.72,3.44-1.45,3.63-2.99,6.79-4.53,9.31-1.74,2.7-3.28,4.93-4.72,6.61-2.41,2.61-5.01,4.65-7.9,6.14v-.28c.96-2.89,1.64-5.49,2.41-7.82.38-1.21.48-3.35.48-6.23s0-4.75-.19-5.4c-.29-1.77-1.25-3.63-2.8-5.4h-5.11c-12.63.93-19.08,1.4-19.57,1.49l-7.23.09c-3.66.19-5.4.28-5.59.37l-21.49.19c-1.64.19-12.82.74-33.64,1.86h-10.02c-.29.09-2.6.19-6.94.19-1.25,0-2.31,0-3.28.09h-10.12c-8.1-.28-15.04-.56-20.72-.93-8.1-.56-14.46-.93-19.37-1.21l-48.1-.19c-.19,0-1.93-.09-5.3-.37h-7.33c-20.82-1.49-32.48-2.42-34.89-2.88-2.02-.47-3.47-1.02-4.14-1.86-.29-.28-.87-1.4-1.93-3.44-1.35-2.7-2.22-4.93-2.51-6.79-.19-.93-.29-2.89-.29-6.05,0-2.33.1-3.91.19-4.84.19-1.02.67-2.98,1.35-5.86.67-2.51,1.93-4.19,3.76-4.93,3.28-1.3,9.83-1.86,19.95-1.49h7.81c10.7.19,20.92-.09,30.36-.65,11.57-.84,20.43-1.3,26.7-1.3h13.01c4.63.28,11.66.56,21.11,1.02,12.05.47,20.92.74,26.8.74,2.31,0,4.24,0,5.78-.19l11.37-.09c4.34,0,7.32-.09,9.16-.28,2.02-.19,3.76-.28,5.21-.28l6.07-.09c4.34-.19,7.42-.28,8.96-.37h13.11c.96-.28,4.72-.47,10.99-.47l8.19-.09c.19,0,.48,0,.87-.09.48-.09,1.06-.09,1.73-.09,1.35,0,2.41.09,3.28.19.48,0,.96,0,1.25.09h10.89l3.28.28c2.41.19,5.4.47,9.16.74,1.64.19,3.47.37,5.3.37.77.09,1.74.09,2.6.19,1.54,0,3.08.19,4.72.19l10.89.09c8.1.47,14.17,1.3,18.41,2.42Z"/>
      <path class="uuid-5e266e80-464e-449f-8887-561a936406b5" d="M309.01,7.17c-.96-.47-2.22-.93-3.66-1.3-4.24-1.12-10.31-1.95-18.41-2.42l-10.89-.09c-1.64,0-3.18-.19-4.72-.19-.87-.09-1.83-.09-2.6-.19-1.83,0-3.66-.19-5.3-.37-3.76-.28-6.75-.56-9.16-.74l-3.28-.28h-10.89c-.29-.09-.77-.09-1.25-.09-.87-.09-1.93-.19-3.28-.19-.67,0-1.25,0-1.73.09-.39.09-.67.09-.87.09l-8.19.09c-6.27,0-10.02.19-10.99.47h-13.11c-1.54.09-4.63.19-8.96.37l-6.07.09c-1.45,0-3.18.09-5.21.28-1.83.19-4.82.28-9.16.28l-11.37.09c-1.54.19-3.47.19-5.78.19-5.88,0-14.75-.28-26.8-.74-9.45-.47-16.48-.74-21.11-1.02h-13.01c-6.26,0-15.13.47-26.7,1.3-9.45.56-19.66.84-30.36.65h-7.81c-10.12-.37-16.67.19-19.95,1.49-1.83.74-3.08,2.42-3.76,4.93-.67,2.89-1.16,4.84-1.35,5.86-.1.93-.19,2.51-.19,4.84,0,3.16.1,5.12.29,6.05.29,1.86,1.16,4.09,2.51,6.79,1.06,2.05,1.64,3.16,1.93,3.44.67.84,2.12,1.4,4.14,1.86,2.41.47,14.07,1.4,34.89,2.88h7.33c3.37.28,5.11.37,5.3.37l48.1.19c4.92.28,11.28.65,19.37,1.21,5.69.37,12.63.65,20.72.93h10.12c.96-.09,2.02-.09,3.28-.09,4.34,0,6.65-.09,6.94-.19h10.02c20.82-1.12,32-1.67,33.64-1.86l21.49-.19c.19-.09,1.93-.19,5.59-.37l7.23-.09c.48-.09,6.94-.56,19.57-1.49h5.11c1.54,1.77,2.51,3.63,2.8,5.4.19.65.19,2.51.19,5.4s-.1,5.03-.48,6.23c-.77,2.33-1.45,4.93-2.41,7.82v.28c2.89-1.49,5.49-3.54,7.9-6.14,1.45-1.67,2.99-3.91,4.72-6.61,1.54-2.51,3.08-5.68,4.53-9.31,1.16-2.33,2.7-3.44,4.72-3.44,7.33,0,12.14-.47,14.36-1.4,1.83-.84,3.28-2.23,4.24-4.09.48-1.3.96-2.79,1.16-4.47,0-.65.1-1.21.1-1.86,0-.09.1-1.21.29-3.54.1-.74.1-1.68.29-2.79.29-4.19.39-6.7.39-7.54,0-.37-.1-.65-.29-.84-.1-.28-.29-.46-.29-.74,0-2.33-1.25-4.09-3.86-5.3Z"/>
    </g>
  </g>
</svg>